<svg display="none"
  xmlns="http://www.w3.org/2000/svg">
  <symbol id="address" viewBox="0 0 32 23">
    <g>
      <path d="M31.9173 14.3394L30.2976 11.861C29.5823 10.7659 28.3671 10.1119 27.0461 10.1119H22.8571V7.70135C22.8571 6.22953 21.6602 5.03266 20.1884 5.03266H12.3465C11.9065 2.73454 9.88363 0.990967 7.45908 0.990967C4.71366 0.990967 2.48035 3.22456 2.48035 5.96969C2.48035 7.69582 3.3642 9.2185 4.70232 10.1119H0.508045C0.227283 10.1119 0 10.3392 0 10.62C0 10.9008 0.227283 11.128 0.508045 11.128H5.58733V12.1438H3.55544C3.27497 12.1438 3.04769 12.3711 3.04769 12.6519C3.04769 12.9326 3.27497 13.1596 3.55544 13.1596H5.58733V14.1754H0.508045C0.227283 14.1754 0 14.4027 0 14.6835C0 14.9642 0.227283 15.1915 0.508045 15.1915H5.58733V17.4411C4.69186 17.8361 4.06349 18.7295 4.06349 19.7694V20.2708C4.06349 20.5516 4.29106 20.7789 4.57153 20.7789H9.07651C9.36541 22.0216 10.4797 22.9517 11.8094 22.9517C13.1394 22.9517 14.2535 22.0216 14.5424 20.7789H24.3147C24.6038 22.0216 25.7182 22.9517 27.0476 22.9517C28.377 22.9517 29.4916 22.0216 29.7805 20.7789H31.4921C31.7729 20.7789 31.9999 20.5516 31.9999 20.2708V14.6172C31.9999 14.5184 31.9711 14.4216 31.9173 14.3394ZM3.49615 5.96969C3.49615 3.78463 5.27402 2.00677 7.45908 2.00677C9.64443 2.00677 11.422 3.78463 11.422 5.96969C11.422 8.15475 9.64443 9.93262 7.45908 9.93262C5.27402 9.93262 3.49615 8.15475 3.49615 5.96969ZM6.60313 15.1915H7.61893C7.89969 15.1915 8.12698 14.9642 8.12698 14.6835C8.12698 14.4027 7.89969 14.1754 7.61893 14.1754H6.60313V13.1596H10.1589C10.4393 13.1596 10.6666 12.9326 10.6666 12.6519C10.6666 12.3711 10.4393 12.1438 10.1589 12.1438H6.60313V11.128H13.2063C13.4867 11.128 13.7143 10.9008 13.7143 10.62C13.7143 10.3392 13.4867 10.1119 13.2063 10.1119H10.2158C11.5333 9.23217 12.4073 7.74174 12.434 6.04846H20.1887C21.0999 6.04846 21.8413 6.79018 21.8413 7.70135V17.2231H6.60953C6.60749 17.2231 6.60546 17.2237 6.60313 17.2237V15.1915ZM21.8413 19.7628H14.5886C14.5086 19.1786 14.2494 18.6519 13.8666 18.2389H21.8413V19.7628ZM6.60953 18.2389H9.75225C9.36977 18.6519 9.11022 19.1786 9.03059 19.7628H5.07929C5.08277 18.9222 5.76811 18.2389 6.60953 18.2389ZM11.8094 21.9359C10.8215 21.9359 10.0173 21.132 10.0173 20.1438C10.0173 19.1559 10.8215 18.3517 11.8094 18.3517C12.7976 18.3517 13.6015 19.1559 13.6015 20.1438C13.6015 21.132 12.7976 21.9359 11.8094 21.9359ZM27.0476 21.9359C26.0597 21.9359 25.2555 21.132 25.2555 20.1438C25.2555 19.1559 26.0597 18.3517 27.0476 18.3517C28.0358 18.3517 28.8397 19.1559 28.8397 20.1438C28.8397 21.132 28.0358 21.9359 27.0476 21.9359ZM30.9841 19.7628H29.8267C29.6398 18.3947 28.4662 17.3359 27.0476 17.3359C25.629 17.3359 24.4556 18.3947 24.2684 19.7628H22.8571V11.128H27.0461C28.0224 11.128 28.9202 11.6096 29.4474 12.4165L30.9841 14.7683V19.7628Z" />
      <path d="M27.8785 20.1439C27.8785 20.6029 27.5065 20.9749 27.0476 20.9749C26.5887 20.9749 26.2166 20.6029 26.2166 20.1439C26.2166 19.685 26.5887 19.313 27.0476 19.313C27.5065 19.313 27.8785 19.685 27.8785 20.1439Z" />
      <path d="M12.6404 20.1439C12.6404 20.6029 12.2684 20.9749 11.8094 20.9749C11.3508 20.9749 10.9788 20.6029 10.9788 20.1439C10.9788 19.685 11.3508 19.313 11.8094 19.313C12.2684 19.313 12.6404 19.685 12.6404 20.1439Z" />
      <path d="M8.12698 5.96977V3.7475C8.12698 3.46674 7.8997 3.23975 7.61894 3.23975C7.33847 3.23975 7.11118 3.46674 7.11118 3.7475V5.8041L6.07446 7.22622C5.90908 7.45292 5.95878 7.77031 6.18548 7.93539C6.27617 8.00166 6.3808 8.03334 6.48456 8.03334C6.64121 8.03334 6.79584 7.96097 6.89524 7.82437L8.02961 6.26884C8.09268 6.18223 8.12698 6.0776 8.12698 5.96977Z" />
      <path d="M26.8764 11.6357H25.9048C25.624 11.6357 25.3967 11.863 25.3967 12.1438V15.6992C25.3967 15.98 25.624 16.2073 25.9048 16.2073H29.3233C29.6419 16.2073 29.927 16.0425 30.0868 15.7673C30.2467 15.492 30.247 15.1624 30.0895 14.8878L28.9033 12.8117C28.4892 12.0868 27.7123 11.6357 26.8764 11.6357ZM26.4128 15.1915V12.6518H26.8764C27.3487 12.6518 27.7873 12.9062 28.0212 13.316L29.0928 15.1915H26.4128Z" />
    </g>
  </symbol>

  <symbol id="tel" viewBox="0 0 23 23">
    <g>
      <path d="M21.4627 16.5887L18.2687 13.3933C17.8397 12.9665 17.2653 12.7314 16.6515 12.7314C16.0128 12.7314 15.4097 12.9829 14.9537 13.4392L13.7104 14.6822C12.7443 14.1452 11.4602 13.4066 10.127 12.0735C8.79538 10.7414 8.05671 9.46105 7.51697 8.48972L8.76146 7.24613C9.68672 6.31895 9.70565 4.83146 8.80379 3.93043L5.6104 0.736948C5.18265 0.308006 4.60826 0.0717773 3.99291 0.0717773C3.36842 0.0717773 2.77767 0.312212 2.32432 0.749838C2.05006 0.970709 0.673731 2.18568 0.160774 4.69131C-0.55742 8.19845 1.09271 11.5728 5.85641 16.3385C11.1779 21.6583 15.7208 22.0718 16.9864 22.0718C17.2499 22.0718 17.4089 22.0555 17.4513 22.0506C19.9331 21.7597 20.8217 20.6575 21.4705 19.8527C22.3112 18.8097 22.3082 17.4373 21.4627 16.5887ZM20.4029 18.992C19.793 19.7484 19.2171 20.4628 17.2918 20.6885C17.2908 20.6886 17.1854 20.7004 16.9864 20.7004C15.8541 20.7004 11.7748 20.3159 6.82611 15.3688C2.43311 10.974 0.891219 7.96012 1.50419 4.9663C1.9516 2.78082 3.13942 1.8519 3.18558 1.81662L3.22654 1.78636L3.26247 1.75034C3.46076 1.55223 3.72012 1.44307 3.99282 1.44307C4.24112 1.44307 4.47076 1.53614 4.64007 1.706L7.83419 4.90021C8.2017 5.26735 8.18214 5.88516 7.79113 6.27699L6.38373 7.68321L6.3606 7.70744C5.99382 8.11142 6.03697 8.65738 6.23901 9.01291C6.82199 10.065 7.62054 11.5058 9.15713 13.0429C10.6886 14.5743 12.1274 15.3723 13.1765 15.9541C13.2815 16.0131 13.4984 16.112 13.7698 16.112C14.0903 16.112 14.3846 15.9764 14.6025 15.7291L15.9233 14.4086C16.1205 14.2113 16.379 14.1026 16.6514 14.1026C16.9002 14.1026 17.131 14.196 17.3 14.364L20.4919 17.5573C20.8974 17.9642 20.73 18.5863 20.4029 18.992Z" />
      <path d="M13.3881 3.43156C14.5663 3.56714 15.9535 4.28076 16.9221 5.24954C17.8999 6.22727 18.6152 7.62855 18.7444 8.81948C18.7825 9.17081 19.0796 9.43117 19.4252 9.43117C19.4499 9.43117 19.4749 9.4298 19.5 9.42715C19.8765 9.38628 20.1485 9.04803 20.1077 8.67156C19.9443 7.16615 19.0952 5.48339 17.8918 4.27994C16.6997 3.08773 15.0341 2.24073 13.5449 2.06931C13.1689 2.02571 12.8287 2.29594 12.7854 2.67204C12.7421 3.04815 13.0118 3.38823 13.3881 3.43156Z" />
      <path d="M12.7476 6.30376C13.3847 6.37717 14.2666 6.84981 14.8443 7.42749C15.4269 8.0102 15.9004 8.90045 15.9702 9.5445C16.0083 9.89592 16.3054 10.1563 16.651 10.1563C16.6757 10.1563 16.7006 10.1549 16.7257 10.1523C17.1021 10.1114 17.3743 9.77314 17.3334 9.39667C17.2142 8.29708 16.4842 7.12827 15.8138 6.4578C15.1493 5.79327 13.992 5.06676 12.9043 4.94142C12.5278 4.89763 12.1881 5.16796 12.1447 5.54406C12.1015 5.92025 12.3714 6.26042 12.7476 6.30376Z" />
    </g>
  </symbol>

  <symbol id="cart" viewBox="0 0 32 31">
    <g>
      <path d="M31.7978 4.03875C31.6226 3.81981 31.3574 3.69238 31.0769 3.69238H6.5095L5.8225 0.7155C5.72581 0.296688 5.35287 0 4.92306 0H0.923063C0.413312 0 0 0.413312 0 0.923125C0 1.43294 0.413312 1.84619 0.923063 1.84619H4.18875L8.852 22.0537C8.94863 22.4726 9.32162 22.7692 9.75144 22.7692H28.2461C28.7559 22.7692 29.1692 22.3559 29.1692 21.8462C29.1692 21.3364 28.7559 20.9231 28.2461 20.9231H10.4858L9.77581 17.8462H28.3078C28.7395 17.8462 29.1136 17.5469 29.2083 17.1257L31.9775 4.81806C32.0391 4.54444 31.9729 4.25775 31.7978 4.03875ZM27.5693 16H9.34975L6.93556 5.5385H29.9231L27.5693 16Z" />
      <path d="M13.5384 24C11.6722 24 10.1538 25.5183 10.1538 27.3846C10.1538 29.2509 11.6721 30.7692 13.5384 30.7692C15.4047 30.7692 16.9231 29.2509 16.9231 27.3846C16.9231 25.5183 15.4047 24 13.5384 24ZM13.5384 28.9231C12.6901 28.9231 12 28.2329 12 27.3846C12 26.5363 12.6901 25.8462 13.5384 25.8462C14.3867 25.8462 15.0769 26.5363 15.0769 27.3846C15.0769 28.2329 14.3867 28.9231 13.5384 28.9231Z" />
      <path d="M24.6153 24C22.7491 24 21.2307 25.5183 21.2307 27.3846C21.2307 29.2509 22.749 30.7692 24.6153 30.7692C26.4816 30.7692 28 29.2509 28 27.3846C28 25.5183 26.4817 24 24.6153 24ZM24.6153 28.9231C23.767 28.9231 23.0769 28.233 23.0769 27.3847C23.0769 26.5364 23.767 25.8462 24.6153 25.8462C25.4637 25.8462 26.1538 26.5364 26.1538 27.3847C26.1538 28.233 25.4637 28.9231 24.6153 28.9231Z" />

    </g>
  </symbol>

  <symbol id="heart" viewBox="0 0 32 29">
    <g>
      <path d="M29.6653 2.77712C28.0869 0.98625 25.8974 0 23.5 0C20.1283 0 17.9936 2.01375 16.7966 3.70312C16.486 4.1415 16.2218 4.58106 16 4.99469C15.7782 4.58106 15.5141 4.1415 15.2034 3.70312C14.0064 2.01375 11.8717 0 8.5 0C6.10262 0 3.91306 0.986313 2.33469 2.77719C0.829188 4.48556 0 6.77356 0 9.21969C0 11.8824 1.03956 14.3589 3.27156 17.0134C5.26638 19.3859 8.13619 21.8314 11.4594 24.6632C12.6977 25.7185 13.9782 26.8098 15.3416 28.0026L15.3825 28.0384C15.5592 28.1932 15.7796 28.2705 16 28.2705C16.2204 28.2705 16.4408 28.1931 16.6175 28.0384L16.6584 28.0026C18.0217 26.8098 19.3023 25.7186 20.5408 24.6631C23.8638 21.8315 26.7336 19.386 28.7284 17.0134C30.9604 14.3589 32 11.8824 32 9.21969C32 6.77356 31.1708 4.48556 29.6653 2.77712ZM19.3246 23.2361C18.2571 24.1458 17.1584 25.0819 16 26.089C14.8416 25.0821 13.7429 24.1458 12.6753 23.236C6.17156 17.6939 1.875 14.0326 1.875 9.21969C1.875 7.23031 2.53781 5.38256 3.74137 4.01688C4.95875 2.63569 6.64869 1.875 8.5 1.875C11.0706 1.875 12.7323 3.45863 13.6735 4.78713C14.5178 5.97863 14.9584 7.17975 15.1086 7.64081C15.2343 8.02675 15.5941 8.28794 16 8.28794C16.4059 8.28794 16.7657 8.02675 16.8914 7.64081C17.0416 7.17975 17.4822 5.97863 18.3265 4.78706C19.2677 3.45863 20.9294 1.875 23.5 1.875C25.3513 1.875 27.0413 2.63569 28.2586 4.01688C29.4622 5.38256 30.125 7.23031 30.125 9.21969C30.125 14.0326 25.8284 17.6939 19.3246 23.2361Z" />
    </g>
  </symbol>

  <symbol id="user" viewBox="0 0 25 32">
    <g>
      <path d="M22.6785 19.9427C21.6076 18.3799 20.213 17.0955 18.5934 16.1643C20.4901 14.467 21.686 12.0018 21.686 9.26225C21.6861 4.15505 17.5311 0 12.4238 0C7.31656 0 3.1615 4.15505 3.1615 9.26225C3.1615 12.0018 4.35743 14.4669 6.25416 16.1643C4.63447 17.0956 3.23995 18.3799 2.16902 19.9427C0.750061 22.0134 0 24.4315 0 26.9359V32H24.8476V26.9359C24.8477 24.4315 24.0976 22.0133 22.6785 19.9427ZM5.10099 9.26225C5.10099 5.22444 8.38604 1.93939 12.4239 1.93939C16.4617 1.93939 19.7467 5.22444 19.7467 9.26225C19.7467 13.3002 16.4617 16.5852 12.4239 16.5852C8.38604 16.5852 5.10099 13.3002 5.10099 9.26225ZM1.93939 30.0606V26.9359C1.93939 22.8273 4.31922 19.1418 8.04034 17.4197C9.34604 18.1242 10.839 18.5245 12.4238 18.5245C14.0085 18.5245 15.5015 18.1241 16.8072 17.4197C20.5284 19.1417 22.9081 22.8273 22.9081 26.9359V30.0606H1.93939Z" />
    </g>
  </symbol>

  <symbol id="facebook" viewBox="0 0 17 32">
    <g>
      <path d="M13.6503 5.31333H16.5514V0.225333C16.0509 0.156 14.3296 0 12.3249 0C8.14209 0 5.27675 2.64933 5.27675 7.51867V12H0.66095V17.688H5.27675V32H10.9359V17.6893H15.365L16.0681 12.0013H10.9346V8.08267C10.9359 6.43867 11.3755 5.31333 13.6503 5.31333Z" />
    </g>
  </symbol>

  <symbol id="youtube" viewBox="0 0 32 24">
    <g>
      <path d="M31.2392 3.90543L31.2789 4.16677C30.8949 2.79477 29.8581 1.7361 28.5407 1.35077L28.5128 1.3441C26.0355 0.666766 16.0664 0.666766 16.0664 0.666766C16.0664 0.666766 6.12239 0.653433 3.61985 1.3441C2.27722 1.7361 1.23913 2.79477 0.861762 4.13877L0.855142 4.16677C-0.0704011 9.03477 -0.0770217 14.8841 0.896189 20.0961L0.855142 19.8321C1.23913 21.2041 2.2759 22.2628 3.59337 22.6481L3.62118 22.6548C6.09591 23.3334 16.0677 23.3334 16.0677 23.3334C16.0677 23.3334 26.0103 23.3334 28.5142 22.6548C29.8581 22.2628 30.8962 21.2041 31.2736 19.8601L31.2802 19.8321C31.7013 17.5681 31.9423 14.9628 31.9423 12.3014C31.9423 12.2041 31.9423 12.1054 31.9409 12.0068C31.9423 11.9161 31.9423 11.8081 31.9423 11.7001C31.9423 9.03743 31.7013 6.4321 31.2392 3.90543ZM12.8859 16.8681V7.1441L21.1827 12.0134L12.8859 16.8681Z" />
    </g>
  </symbol>

  <symbol id="telegram" viewBox="0 0 33 28">
    <g>
      <path d="M13.3281 18.2415L12.8024 25.6868C13.5545 25.6868 13.8802 25.3615 14.2708 24.9708L17.7969 21.5775L25.1032 26.9655C26.4432 27.7175 27.3873 27.3215 27.7488 25.7241L32.5447 3.0948L32.546 3.09347C32.971 1.0988 31.8296 0.3188 30.5241 0.808134L2.3341 11.6761C0.410193 12.4281 0.439323 13.5081 2.00705 13.9975L9.2141 16.2548L25.9546 5.7068C26.7425 5.18147 27.4588 5.47213 26.8696 5.99747L13.3281 18.2415Z" />
    </g>
  </symbol>

  <symbol id="instagram" viewBox="0 0 33 32">
    <g>
      <path d="M16.4486 7.78394C11.9427 7.78394 8.29486 11.4613 8.29486 15.9946C8.29486 20.5319 11.9467 24.2053 16.4486 24.2053C20.9545 24.2053 24.6024 20.5279 24.6024 15.9946C24.6024 11.4573 20.9506 7.78394 16.4486 7.78394ZM16.4486 21.3239C13.5237 21.3239 11.1562 18.9386 11.1562 15.9946C11.1562 13.0506 13.525 10.6653 16.4486 10.6653C19.3722 10.6653 21.741 13.0506 21.741 15.9946C21.7424 18.9386 19.3736 21.3239 16.4486 21.3239Z" />
      <path d="M22.995 0.101248C20.0714 -0.0360854 12.8299 -0.0294187 9.90363 0.101248C7.33224 0.222581 5.06406 0.847914 3.23549 2.68925C0.179476 5.76658 0.570084 9.91325 0.570084 15.9946C0.570084 22.2186 0.225819 26.2692 3.23549 29.2999C6.30342 32.3879 10.4809 31.9839 16.4486 31.9839C22.5713 31.9839 24.6845 31.9879 26.8494 31.1439C29.7929 29.9932 32.0147 27.3439 32.2319 22.5852C32.3696 19.6399 32.3616 12.3492 32.2319 9.40258C31.9697 3.78525 28.9759 0.378581 22.995 0.101248ZM27.6227 27.2639C25.6193 29.2812 22.84 29.1012 16.4102 29.1012C9.78976 29.1012 7.13495 29.1999 5.1978 27.2439C2.9667 25.0079 3.37055 21.4172 3.37055 15.9732C3.37055 8.60658 2.61978 3.30125 9.96189 2.92258C11.6488 2.86258 12.1453 2.84258 16.3917 2.84258L16.4513 2.88258C23.5074 2.88258 29.0434 2.13858 29.3758 9.53058C29.4513 11.2172 29.4685 11.7239 29.4685 15.9932C29.4671 22.5826 29.5916 25.2719 27.6227 27.2639Z" />
      <path d="M24.9255 9.37859C25.9778 9.37859 26.8309 8.51957 26.8309 7.45992C26.8309 6.40027 25.9778 5.54126 24.9255 5.54126C23.8732 5.54126 23.0201 6.40027 23.0201 7.45992C23.0201 8.51957 23.8732 9.37859 24.9255 9.37859Z" />
    </g>
  </symbol>

  <symbol id="arrow-right" viewBox="0 0 20 32">
    <g>
      <path d="M18.9641 14.9851L2.95082 0.392105C2.42535 -0.130702 1.57314 -0.130702 1.04767 0.392105C0.522196 0.914872 0.522196 1.76312 1.04767 2.28593L16.0954 16L1.049 29.7141C0.523529 30.2369 0.523529 31.0852 1.049 31.6079C1.57448 32.1307 2.42668 32.1307 2.95212 31.6079L18.9654 17.0149C19.2455 16.7362 19.3656 16.3668 19.3469 16.0014C19.3643 15.6346 19.2443 15.2652 18.9641 14.9851Z" />
    </g>
  </symbol>

  <symbol id="arrow-left" viewBox="0 0 20 32">
    <g>
      <path d="M1.03821 17.0149L17.0515 31.6079C17.577 32.1307 18.4292 32.1307 18.9546 31.6079C19.4801 31.0851 19.4801 30.2369 18.9546 29.7141L3.9069 16L18.9533 2.2859C19.4788 1.76309 19.4788 0.914839 18.9533 0.392073C18.4278 -0.130695 17.5756 -0.130695 17.0502 0.392072L1.03687 14.9851C0.756805 15.2638 0.63673 15.6332 0.655437 15.9986C0.638023 16.3654 0.75806 16.7348 1.03821 17.0149Z" />
    </g>
  </symbol>

  <symbol id="search" viewBox="0 0 21 20">
    <g>
      <path d="M9.02081 16.4718C4.47604 16.4718 0.778625 12.7772 0.778625 8.23588C0.778625 3.69459 4.47604 0 9.02081 0C13.5656 0 17.263 3.69459 17.263 8.23588C17.263 12.7772 13.5656 16.4718 9.02081 16.4718ZM9.02081 1.5613C5.33761 1.5613 2.34112 4.5555 2.34112 8.23588C2.34112 11.9163 5.33761 14.9105 9.02081 14.9105C12.704 14.9105 15.7005 11.9163 15.7005 8.23588C15.7005 4.5555 12.704 1.5613 9.02081 1.5613ZM20.5498 19.7713C20.8549 19.4665 20.8549 18.9722 20.5498 18.6673L17.0537 15.1739C16.7486 14.869 16.2539 14.869 15.9488 15.1739C15.6438 15.4788 15.6438 15.9731 15.9488 16.2779L19.4449 19.7713C19.5975 19.9238 19.7974 20 19.9974 20C20.1974 20 20.3972 19.9238 20.5498 19.7713Z" />
    </g>
  </symbol>
</svg>






<svg class="address-icon">
  <use xlink:href="sprite.svg#address"></use>
</svg>

<svg class="address-icon">
  <use xlink:href="sprite.svg#tel"></use>
</svg>

<svg class="user-icon user-icon--cart">
  <use xlink:href="sprite.svg#cart"></use>
</svg>

<svg class="user-icon user-icon--heart">
  <use xlink:href="sprite.svg#heart"></use>
</svg>

<svg class="user-icon user-icon--user">
  <use xlink:href="sprite.svg#user"></use>
</svg>

<svg class="social-icon">
  <use xlink:href="sprite.svg#facebook"></use>
</svg>

<svg class="social-icon">
  <use xlink:href="sprite.svg#youtube"></use>
</svg>

<svg class="social-icon">
  <use xlink:href="sprite.svg#telegram"></use>
</svg>

<svg class="social-icon">
  <use xlink:href="sprite.svg#instagram"></use>
</svg>

<svg class="icon">
  <use xlink:href="sprite.svg#arrow-left"></use>
</svg>

<svg class="icon">
  <use xlink:href="sprite.svg#arrow-right"></use>
</svg>

<svg class="search-icon">
  <use xlink:href="sprite.svg#search"></use>
</svg>