<svg width="80" height="31" viewBox="0 0 80 31" fill="none" xmlns="http://www.w3.org/2000/svg">
<path fill-rule="evenodd" clip-rule="evenodd" d="M20.4175 20.5727C19.1136 23.82 17.8101 27.0674 16.507 30.3151H23.8153C23.8153 30.3151 22.5008 29.6399 23.1739 27.6147C23.879 25.5886 24.552 23.7239 24.552 23.7239C24.552 23.7239 24.6483 23.5304 24.8086 23.6596C24.8086 23.6596 25.2892 24.7848 27.5971 24.7204C27.7895 24.6887 28.014 24.6887 28.206 24.6569C30.3214 24.4643 32.4692 23.4674 33.6866 20.5405C33.9753 19.8336 34.2956 19.1262 34.5842 18.4184C35.6737 15.8463 36.4751 13.3064 34.7125 11.7951C34.6804 11.7629 34.6163 11.7307 34.5842 11.6986C33.1739 10.6051 31.3788 10.7016 28.2055 10.766C26.8594 10.766 25.2568 10.7982 23.3334 10.7016L22.4358 10.8625C22.4358 10.8625 23.8144 11.6986 23.173 13.4994C22.9177 14.2376 21.7315 17.2928 20.4175 20.5727ZM77.6628 24.013C78.3996 23.7887 79.041 23.1452 79.233 22.2444C79.4896 21.1192 78.849 20.3792 77.9194 20.3792C77.8223 20.3792 77.7591 20.4118 77.6628 20.4118C77.2459 20.4762 76.8611 20.6692 76.5404 20.9579C76.2838 21.1831 76.0602 21.5048 75.8998 21.8587C75.8673 21.987 75.8357 22.1161 75.8036 22.244C75.7074 22.6948 75.7711 23.1126 75.8998 23.4018C76.0602 23.6591 76.2522 23.8843 76.5404 23.9809C76.7332 24.0452 76.9252 24.0774 77.1501 24.0774V24.1091C77.3254 24.1085 77.4991 24.0759 77.6628 24.013ZM77.6628 19.8649C77.7907 19.8331 77.9194 19.8331 78.0468 19.8331C79.2972 19.8331 80.2584 20.734 79.9377 22.2444C79.6812 23.4987 78.7199 24.3348 77.6628 24.5921C77.4384 24.6239 77.2459 24.6565 77.0214 24.6565C76.8611 24.6565 76.7007 24.6239 76.5404 24.6239C76.3167 24.5604 76.0918 24.4956 75.8998 24.3995C75.2584 24.0135 74.9061 23.2744 75.098 22.2448C75.2584 21.634 75.5475 21.1196 75.8998 20.7344C76.0911 20.5458 76.3065 20.3835 76.5404 20.2518C76.8936 20.0584 77.278 19.8975 77.6628 19.8649ZM77.6628 23.3704L77.3421 22.4379H77.0856L76.8611 23.5304H76.3167L76.5404 22.4053L76.8611 20.9266H77.8223C78.4954 20.9266 78.8486 21.1192 78.7203 21.7301C78.6241 22.2126 78.3034 22.3735 77.9511 22.4053L78.368 23.5304H77.7266L77.6628 23.3704ZM77.6628 21.3762H77.6945C77.919 21.3762 78.1756 21.4088 78.1431 21.6661C78.0798 21.9553 77.9194 22.0196 77.6628 22.0196H77.1818L77.3105 21.3762H77.6628ZM76.5404 11.859C76.9252 12.5985 76.7649 13.4024 76.7007 13.8524C76.7007 14.0768 76.6366 14.3668 76.5404 14.6559C76.3693 15.2392 76.1552 15.8088 75.8998 16.3602C75.6108 17.068 75.3225 17.6145 75.3225 17.6145H67.9822C67.1813 19.254 67.4695 21.5692 70.0976 21.4409C70.2263 21.4409 70.3541 21.4409 70.4824 21.4092C72.9185 21.184 74.5849 19.8331 74.5849 19.8331L73.4949 22.6626C73.4949 22.6626 72.7902 23.8204 70.4824 24.3022C69.6815 24.4956 68.6553 24.5921 67.4374 24.5274C65.7069 24.4639 64.5211 23.9813 63.7519 23.2739C60.9951 20.7975 63.367 15.5567 63.1421 16.1028C63.2708 15.7811 63.4628 15.235 63.7519 14.5594C64.5853 12.7268 66.3475 10.0904 70.4824 9.92949H71.1555C73.7194 9.99384 75.1618 10.476 75.8994 11.0873C76.2205 11.3442 76.4125 11.6016 76.5404 11.859ZM70.4829 15.5567H71.3479C71.7328 15.4924 73.1426 12.9198 71.2838 12.7272C70.9956 12.6951 70.7074 12.7594 70.4829 12.8559C69.2325 13.3703 68.7523 15.428 68.7523 15.428C68.7198 15.5572 68.8802 15.5572 68.8802 15.5572H70.4829V15.5567ZM63.7523 12.6946H64.1692L65.0988 10.5082H62.8547L63.7527 8.22519L64.7781 5.68483H62.7906C60.4832 10.9903 56.0917 10.5082 56.0917 10.5082L55.1945 12.6946H56.7972L53.4957 20.9262L52.0533 24.4952H59.7452C57.7264 23.5944 58.367 21.9231 58.367 21.9231C58.367 21.9231 60.6427 16.0063 62.0209 12.6946H63.7523ZM53.4957 14.045C52.1166 17.4215 50.3865 21.9231 50.3865 21.9231C50.3865 21.9231 49.8092 23.4983 51.4765 24.4952H43.7838L46.0279 18.9327L49.3611 10.6043H54.9384C54.6814 11.119 54.1362 12.4699 53.4957 14.045ZM46.0275 14.785C45.5464 14.4633 44.6484 14.1742 43.3348 15.0424C41.6043 16.1993 40.0016 21.9235 40.0016 21.9235C40.0016 21.9235 39.6492 23.7887 41.0916 24.4956H33.4309C33.4309 24.4956 33.9116 23.3061 34.5846 21.6661C35.8666 18.4506 37.8221 13.6272 37.8541 13.4664C37.9183 13.1772 38.8479 11.8907 37.4056 10.7334H42.8221L42.341 12.1481C42.341 12.1481 42.3735 12.3733 42.5655 12.1481C42.7259 11.9873 43.7196 10.7977 46.0275 10.3795C46.6364 10.2508 47.3736 10.1864 48.239 10.2508L46.3482 15.0737C46.3482 15.0741 46.2511 14.9133 46.0275 14.785ZM28.206 20.6692C27.7891 21.4409 27.3084 21.8587 26.5396 21.7301C25.001 21.4727 27.6291 16.5541 28.1102 14.9781C28.1102 14.9781 28.1423 14.8489 28.2064 14.6889C28.4309 14.142 28.9436 13.0807 29.6808 13.4346C30.6104 13.8529 30.5783 14.3989 29.5846 17.0358C29.0715 18.4506 28.687 19.801 28.206 20.6692ZM24.2959 4.59224L21.6995 9.4795C21.6995 9.4795 21.6353 7.13217 20.4175 5.7496C19.8086 5.0744 18.9752 4.62398 17.7253 4.75267C13.9431 5.10657 14.9368 8.61127 15.3854 9.73689C15.3854 9.73689 18.5907 17.7436 18.6224 18.3215C18.6865 18.9006 19.8082 21.6661 17.0839 24.7843C17.0839 24.7843 13.013 30.572 4.13456 27.5499C4.13456 27.5499 0.929195 26.4565 0 23.2091L3.68599 18.5149C3.68599 18.5149 2.66059 24.6561 8.42989 24.1735C13.8468 23.6909 10.1288 16.5206 9.80808 15.6528C9.2633 14.0768 5.96173 6.7461 9.77601 3.3701C12.5007 0.926253 17.0197 0.218879 20.4175 1.37667C22.1164 1.95535 23.5587 3.01663 24.2959 4.59224Z" fill="#33A457"/>
</svg>
